<svg width="1476" height="773" viewBox="0 0 1476 773" fill="none" xmlns="http://www.w3.org/2000/svg">
<path d="M434.496 500.021C450.722 506.574 488.692 510.498 508.345 500.021C539.852 483.224 546.406 378.424 550.059 355.047" stroke="black" stroke-width="5" stroke-linecap="round"/>
<path d="M1127.61 571C1069.43 539.579 1015.11 487.097 1001.33 446.058C994.923 424.255 979.284 395.399 1004.39 367.185C1029.5 338.97 1052.62 359.276 1061.03 372.956C1073.51 392.822 1108.3 437.099 1141.61 460.577" stroke="black" stroke-width="5" stroke-linecap="round"/>
<path d="M1370.84 583.347C1364.84 596.15 1356.45 629.827 1370.84 662.111" stroke="black" stroke-width="5" stroke-linecap="round"/>
<path d="M1283.64 421.509C1319.23 406.365 1342.58 431.958 1358.3 444.047C1385.9 468.226 1444.13 524.441 1461.05 553.455C1468.31 562.724 1496.72 606.045 1416.32 664.678" stroke="black" stroke-width="5" stroke-linecap="round"/>
<path d="M1435.65 674C1447.6 684.949 1462.92 708.878 1428.61 717" stroke="black" stroke-width="5" stroke-linecap="round"/>
<path d="M1436.61 697C1434.64 687.209 1426.53 668.744 1409.02 662.814C1406.14 661.84 1403.01 661.204 1399.61 661" stroke="black" stroke-width="5" stroke-linecap="round"/>
<path d="M1401.85 590C1379.04 604.556 1356.26 658.379 1388.9 695.145C1421.55 731.911 1434.31 735.134 1436.61 732.15" stroke="black" stroke-width="5" stroke-linecap="round"/>
<path d="M1312.61 518C1322.38 536.2 1352.06 573.08 1392.61 575" stroke="black" stroke-width="5" stroke-linecap="round"/>
<path d="M976.645 371.171C966.519 351.468 935.569 336.212 929.397 331.233C921.09 324.532 923.254 319.882 926.714 318.685C930.753 317.488 938.598 319.044 944.598 325.267C950.598 331.489 954.02 329.056 954.982 327.062C955.367 326.064 955.905 321.437 954.982 310.906C954.059 300.376 937.099 294.154 937.099 286.973C937.099 278.836 943.252 279.594 946.329 280.99C952.098 283.583 964.212 290.922 966.519 299.538C967.07 303.344 969.396 312.148 974.295 316.91" stroke="black" stroke-width="5" stroke-linecap="round"/>
<path d="M983.441 311.372C981.615 305.838 976.444 295.348 967.132 300.545" stroke="black" stroke-width="5" stroke-linecap="round"/>
<path d="M992.953 314.089C992.953 309.824 993.433 301.41 979.364 301.875" stroke="black" stroke-width="5" stroke-linecap="round"/>
<path d="M1016.06 339.912C1010.48 334.033 1004.2 325.54 1002.8 316.394C1001.84 310.101 994.658 305.725 990.238 305.943" stroke="black" stroke-width="5" stroke-linecap="round"/>
<path d="M692.674 344.001L665.83 448.181C665.227 450.518 668.513 451.724 669.566 449.553L720.081 345.373C720.725 344.045 719.757 342.5 718.281 342.5H694.61C693.698 342.5 692.901 343.118 692.674 344.001Z" fill="black"/>
<path d="M501.578 342.5H623.675C625.905 342.5 627.865 343.977 628.481 346.121L658.109 449.322C659.529 454.268 666.592 454.103 667.78 449.096L692.148 346.347C692.683 344.092 694.696 342.5 697.013 342.5H889.916" stroke="black" stroke-width="5" stroke-linecap="round"/>
<path d="M614.943 172.743H1008.34C1011.1 172.743 1013.34 174.982 1013.34 177.743V296.345" stroke="black" stroke-width="5" stroke-linecap="round"/>
<path d="M533.581 174.102H409.467C406.705 174.102 404.467 176.34 404.467 179.102V336.27C404.467 339.032 406.705 341.27 409.467 341.27H470.98" stroke="black" stroke-width="5" stroke-linecap="round"/>
<path d="M514.554 169.563C520.548 156.732 542.297 129.314 577.101 139.711C601.914 147.123 615.031 170.141 617.438 185.959C617.963 189.407 614.444 191.445 611.521 189.542C605.639 185.713 597.711 179.453 591.174 171.134" stroke="black" stroke-width="5" stroke-linecap="round"/>
<path d="M539.017 172.743C544.746 192.011 559.822 231.861 570.264 226.64C576.513 223.515 570.784 197.478 565.577 188.365" stroke="black" stroke-width="5" stroke-linecap="round"/>
<path d="M572.995 217.394C582.142 224.453 595.863 221.316 577.569 178.179" stroke="black" stroke-width="5" stroke-linecap="round"/>
<path d="M587.944 211.56C595.574 214.135 606.745 209.705 590.397 171.383" stroke="black" stroke-width="5" stroke-linecap="round"/>
<path d="M472.849 292.158C470.147 291.709 473.661 275.884 476.046 266.892C476.256 266.099 475.966 265.261 475.309 264.769L461.542 254.46C460.088 253.371 460.721 251.063 462.527 250.869C468.474 250.231 476.145 249.405 479.355 249.049C484.678 248.458 485.27 236.647 488.818 231.923C491.461 228.405 495.333 238.258 497.288 244.718C497.536 245.541 498.268 246.125 499.126 246.168L516.697 247.045C518.452 247.133 519.253 249.281 517.99 250.501C513.35 254.983 507.237 260.996 505.379 263.222C502.422 266.765 512.477 285.072 513.66 292.158C514.843 299.245 492.959 279.757 491.776 277.985C490.593 276.214 476.398 292.749 472.849 292.158Z" fill="black" fill-opacity="0.5"/>
<path d="M620.073 248.895L602.637 250.442C601.692 250.525 600.821 249.936 600.526 249.035C599.288 245.248 596.919 238.862 594.43 234.814C591.727 230.419 587.046 242.905 584.673 250.885C584.417 251.743 583.635 252.336 582.74 252.363C579.327 252.464 573.204 252.895 567.488 254.09C559.106 255.843 572.876 263.436 577.666 268.109C582.455 272.782 568.685 285.048 571.679 292.058C574.672 299.067 589.041 281.544 592.633 279.207C596.226 276.871 609.397 291.474 614.785 292.058C620.174 292.642 611.792 273.366 609.397 268.109C607.95 264.932 615.066 258.001 621.558 252.701C623.135 251.414 622.1 248.715 620.073 248.895Z" fill="black" fill-opacity="0.6"/>
<path d="M826.657 248.895L809.221 250.442C808.276 250.525 807.405 249.936 807.11 249.035C805.872 245.248 803.503 238.862 801.014 234.814C798.311 230.419 793.63 242.905 791.257 250.885C791.001 251.743 790.219 252.336 789.324 252.363C785.911 252.464 779.788 252.895 774.072 254.09C765.69 255.843 779.46 263.436 784.25 268.109C789.039 272.782 775.269 285.048 778.263 292.058C781.256 299.067 795.625 281.544 799.217 279.207C802.81 276.871 815.981 291.474 821.369 292.058C826.758 292.642 818.376 273.366 815.981 268.109C814.534 264.932 821.65 258.001 828.142 252.701C829.719 251.414 828.684 248.715 826.657 248.895Z" fill="black" fill-opacity="0.8"/>
<path d="M728.417 249.692C733.244 244.631 716.942 246.445 706.863 248.197C705.939 248.358 705.023 247.866 704.691 246.989C702.849 242.117 702.131 237.56 699.506 231.505C696.551 224.691 691.989 240.186 690.015 249.783C689.813 250.77 688.925 251.466 687.919 251.421C683.921 251.243 677.268 251.094 672.908 251.51C666.547 252.116 676.377 260.603 682.737 266.665C689.098 272.727 678.69 280.607 678.111 293.338C677.533 306.068 690.832 287.882 697.193 283.032C703.553 278.183 707.601 293.338 714.539 293.338C721.478 293.338 714.539 276.364 712.805 270.302C711.07 264.24 722.056 256.36 728.417 249.692Z" fill="black" fill-opacity="0.7"/>
<path d="M939.703 267.6C946.86 264.266 928.37 258.669 918.231 256.287C918.628 252.318 919.304 242.711 918.827 236.042C918.23 227.706 906.301 246.165 903.319 249.737C900.337 253.31 887.215 245.57 878.865 244.379C870.515 243.188 883.04 256.287 888.408 262.837C893.776 269.387 878.865 276.532 877.076 286.654C875.286 296.777 891.987 284.868 899.144 284.273C906.302 283.677 901.53 297.967 911.073 305.708C920.616 313.449 918.231 290.822 918.231 281.295C918.231 271.768 930.756 271.768 939.703 267.6Z" fill="black"/>
<path d="M941.31 223.031L945.387 206.722" stroke="black" stroke-width="5" stroke-linecap="round"/>
<path d="M948.105 233.903C953.875 230.414 967.933 222.541 978.005 218.953" stroke="black" stroke-width="5" stroke-linecap="round"/>
<path d="M957.619 242.058L973.928 246.135" stroke="black" stroke-width="5" stroke-linecap="round"/>
<path d="M276.568 546.495H998.391" stroke="black" stroke-width="5" stroke-linecap="round"/>
<path d="M2.6123 546.495H172.1" stroke="black" stroke-width="5" stroke-linecap="round"/>
<path d="M24.3584 546.494V335.884C24.3584 327.6 31.0741 320.884 39.3584 320.884H122.213" stroke="black" stroke-width="5" stroke-linecap="round"/>
<path d="M707.089 694.503C698.203 679.495 726.569 677.306 741.862 678.088V688.875L791.607 694.503C767.137 700.756 715.976 709.511 707.089 694.503Z" fill="black"/>
<path d="M813.523 673.567L795.99 694.023" stroke="black" stroke-width="5" stroke-linecap="round"/>
<path d="M791.607 635.579L743.39 632.657" stroke="black" stroke-width="5" stroke-linecap="round"/>
<path d="M762.385 619.507L813.523 620.968" stroke="black" stroke-width="5" stroke-linecap="round"/>
<path d="M743.39 632.657L740.468 686.717" stroke="black" stroke-width="5" stroke-linecap="round"/>
<path d="M813.523 622.429V673.567" stroke="black" stroke-width="5" stroke-linecap="round"/>
<path d="M795.99 653.112V694.023" stroke="black" stroke-width="5" stroke-linecap="round"/>
<path d="M743.39 632.657L762.385 619.507" stroke="black" stroke-width="5" stroke-linecap="round"/>
<path d="M795.99 694.023L739.007 686.717" stroke="black" stroke-width="5" stroke-linecap="round"/>
<path d="M496.467 758.827C496.941 745.937 550.07 750.08 553.391 750.54V758.827L569.519 769.875C545.01 770.489 496.087 769.139 496.467 758.827Z" fill="black"/>
<path d="M627.963 758.311V708.634" stroke="black" stroke-width="5" stroke-linecap="round"/>
<path d="M587.052 770V715.939" stroke="black" stroke-width="5" stroke-linecap="round"/>
<path d="M551.986 758.311V704.25" stroke="black" stroke-width="5" stroke-linecap="round"/>
<path d="M551.986 704.251L589.975 694.023" stroke="black" stroke-width="5" stroke-linecap="round"/>
<path d="M627.963 708.634L587.052 715.939" stroke="black" stroke-width="5" stroke-linecap="round"/>
<path d="M587.052 770L627.963 758.311" stroke="black" stroke-width="5" stroke-linecap="round"/>
<path d="M627.963 708.634L589.975 694.023" stroke="black" stroke-width="5" stroke-linecap="round"/>
<path d="M551.986 704.25L587.052 715.939" stroke="black" stroke-width="5" stroke-linecap="round"/>
<path d="M369.351 653.628C369.835 640.737 424.027 644.881 427.414 645.341V653.628L443.865 664.676C418.866 665.29 368.964 663.94 369.351 653.628Z" fill="black"/>
<path d="M502.309 653.112V604.896" stroke="black" stroke-width="5" stroke-linecap="round"/>
<path d="M459.937 664.801V612.201" stroke="black" stroke-width="5" stroke-linecap="round"/>
<path d="M426.332 653.112V599.051" stroke="black" stroke-width="5" stroke-linecap="round"/>
<path d="M459.937 664.801L502.309 653.112" stroke="black" stroke-width="5" stroke-linecap="round"/>
<path d="M502.309 604.896L459.937 612.201" stroke="black" stroke-width="5" stroke-linecap="round"/>
<path d="M426.332 599.051L462.859 590.285" stroke="black" stroke-width="5" stroke-linecap="round"/>
<path d="M502.309 604.896L462.859 590.285" stroke="black" stroke-width="5" stroke-linecap="round"/>
<path d="M426.332 600.512L459.937 612.201" stroke="black" stroke-width="5" stroke-linecap="round"/>
<path d="M486.151 555.114L465.641 587.241C464.959 588.309 465.43 589.734 466.614 590.186L499.753 602.831C500.666 603.18 501.697 602.817 502.191 601.975L521.554 568.97C522.184 567.895 521.689 566.512 520.519 566.081L488.527 554.313C487.645 553.989 486.657 554.322 486.151 555.114Z" stroke="black" stroke-width="5"/>
<path d="M1131.72 223.965C1142.88 264.122 1148.48 267.68 1164.72 285.47C1164.72 267.889 1167.75 238.377 1167.75 226.087C1220.97 226.087 1265.88 204.347 1281.7 193.475C1281.12 230.341 1315.66 254.446 1315.66 254.446C1315.66 254.446 1310.71 269.335 1307.88 302.656C1305.6 329.314 1312.13 324.163 1315.66 318.254C1325.85 285.357 1342.54 294.149 1349.63 302.656C1436.47 161.443 1302.92 134.158 1277.44 136.758C1258.19 120.31 1231.35 107.42 1212.48 105.529C1144.41 98.7109 1113.61 158.853 1131.72 223.965Z" fill="black"/>
<path d="M1315.61 344.405C1306.32 400.481 1243.94 440.805 1198.92 395.378C1153.9 349.952 1162.92 266.802 1167.73 228" stroke="black" stroke-width="5" stroke-linecap="round"/>
<path d="M1348.87 297C1354 311.304 1349.18 343 1315.61 343" stroke="black" stroke-width="5" stroke-linecap="round"/>
<path d="M1333.31 308C1334.27 310.475 1333.5 316.343 1322.61 320" stroke="black" stroke-width="5" stroke-linecap="round"/>
<path d="M1168.61 337C1156.56 332.016 1148.04 313.558 1151.32 284" stroke="black" stroke-width="5" stroke-linecap="round"/>
<path d="M1235.61 371.23C1224.4 374.884 1225.11 364.826 1216.61 356" stroke="black" stroke-width="5" stroke-linecap="round"/>
<path d="M1201.11 305C1196.42 305 1192.61 301.642 1192.61 297.5C1192.61 293.358 1196.42 290 1201.11 290C1205.81 290 1209.61 293.358 1209.61 297.5C1209.61 301.642 1205.81 305 1201.11 305Z" fill="black"/>
<path d="M1267.61 305C1263.19 305 1259.61 302.314 1259.61 299C1259.61 295.686 1263.19 293 1267.61 293C1272.03 293 1275.61 295.686 1275.61 299C1275.61 302.314 1272.03 305 1267.61 305Z" fill="black"/>
<path d="M1285.61 282C1283.83 277.775 1276.12 269.96 1259.61 272.495" stroke="black" stroke-width="5" stroke-linecap="round"/>
<path d="M1213.61 272C1209.83 270.491 1199.52 268.378 1188.61 272" stroke="black" stroke-width="5" stroke-linecap="round"/>
<path d="M1240.65 297C1242.03 306.873 1242.99 326.898 1235.61 328" stroke="black" stroke-width="5" stroke-linecap="round"/>
<path d="M1193.97 434.41C1188.56 419.747 1193.51 409.88 1198.31 408C1227.25 432.815 1271.15 423.603 1287.41 408.563C1293.2 413.527 1289.83 428.208 1287.41 432.719C1256.07 465.204 1211.46 447.007 1193.97 434.41Z" fill="black"/>
<path d="M1191.61 433C1166.62 439.064 1122.7 486.064 1157.53 668" stroke="black" stroke-width="5" stroke-linecap="round"/>
<circle cx="370.079" cy="149.763" r="31.8359" stroke="black" stroke-width="5"/>
<circle cx="291.18" cy="149.763" r="31.8359" stroke="black" stroke-width="5"/>
<path d="M325.516 143.483C328.438 141.93 335.159 139.987 338.666 144.649" stroke="black" stroke-width="5" stroke-linecap="round"/>
<circle cx="292.641" cy="152.685" r="8.03605" fill="black"/>
<circle cx="364.235" cy="152.685" r="8.03605" fill="black"/>
<path d="M357.66 134.421C359.877 132.863 366.195 129.512 373.732 128.577" stroke="black" stroke-width="5" stroke-linecap="round"/>
<path d="M287.527 129.053C294.224 127.687 303.964 129.053 309.443 135.882" stroke="black" stroke-width="5" stroke-linecap="round"/>
<path d="M329.899 175.318C334.134 175.5 342.985 174.005 344.51 166.565" stroke="black" stroke-width="5" stroke-linecap="round"/>
<path d="M309.443 201.632C315.356 208.302 315.193 214.305 335.743 207.19" stroke="black" stroke-width="5" stroke-linecap="round"/>
<path d="M380.201 179.715C382.93 194.627 379.834 208.775 357.983 230.261C332.841 254.983 321.147 267.344 286.066 240.856" stroke="black" stroke-width="5" stroke-linecap="round"/>
<path d="M382.297 197.248C374.802 101.581 306.219 62.9644 272.062 55.381C251.92 58.6476 241.015 112.945 215.644 118.896C208.105 118.896 201.174 117.408 197.735 102.035C179.466 20.3677 233.221 17.0752 256.838 19.7974C392.684 -56.0351 465.444 103.914 382.297 197.248Z" fill="black"/>
<path d="M211.55 156.338C211.55 157.799 211.55 161.306 211.55 163.643" stroke="black" stroke-width="5" stroke-linecap="round"/>
<path d="M259.766 141.727H211.55" stroke="black" stroke-width="5" stroke-linecap="round"/>
<path d="M218.155 145.474C209.941 139.698 196.009 144.268 200.862 166.104C203.888 179.72 217.722 181.645 220.316 173.118" stroke="black" stroke-width="5" stroke-linecap="round"/>
<path d="M233.466 261.537C110.738 261.537 110.386 413.572 47.9065 474.858" stroke="black" stroke-width="5" stroke-linecap="round"/>
<path d="M344.711 374.413C321.746 380.861 282.051 377.201 266.079 374.279C265.379 374.151 264.759 374.76 264.881 375.461C267.743 391.944 277.062 471.201 275.229 542.698C275.216 543.184 275.551 543.607 276.03 543.692C284.174 545.133 306.339 546.634 318.518 544.603C318.888 544.542 319.181 544.274 319.29 543.916L324.438 526.96C332.36 509.001 340.499 445.88 345.998 375.47C346.053 374.767 345.39 374.222 344.711 374.413Z" fill="black"/>
<path d="M349.944 252.771C354.475 302.379 343.112 477 320.112 543.5" stroke="black" stroke-width="5" stroke-linecap="round"/>
<path d="M243.694 287.837C255.397 330.74 280.858 452.681 275.112 545.5" stroke="black" stroke-width="5" stroke-linecap="round"/>
<path d="M248.077 279.07C258.4 302.818 291.186 342.632 305.06 356.509" stroke="black" stroke-width="5" stroke-linecap="round"/>
<path d="M315.288 356.508C323.842 338.331 342.539 297.687 348.893 280.531" stroke="black" stroke-width="5" stroke-linecap="round"/>
<path d="M318.632 363.083C318.632 367.92 315.013 371.542 310.904 371.542C306.796 371.542 303.177 367.92 303.177 363.083C303.177 358.247 306.796 354.625 310.904 354.625C315.013 354.625 318.632 358.247 318.632 363.083Z" stroke="black" stroke-width="5"/>
<path d="M182.753 530.379C182.753 531.178 196.984 544.212 199.487 551.626C200.415 554.373 199.732 556.348 196.118 556.644C185.426 557.52 172.729 541.688 167.717 533.663" stroke="black" stroke-width="5" stroke-linecap="round"/>
<path d="M198.392 521.613C203.523 529.514 212.472 541.692 220.316 548.6C219.6 553.91 214.218 561.98 198.418 551.786C196.012 544.592 182.328 531.945 182.328 531.17" stroke="black" stroke-width="5" stroke-linecap="round"/>
<path d="M212.536 514.308C222.504 524.689 240.591 546.931 233.197 552.843C231.886 553.891 230.215 553.993 228.304 553.379C226.027 552.647 223.411 550.901 220.661 548.529C212.696 541.662 203.609 529.554 198.4 521.698" stroke="black" stroke-width="5" stroke-linecap="round"/>
<path d="M132.65 533.947C149.283 513.49 200.987 476.412 231.359 503.262C243.472 515.134 258.568 536.593 249.89 545.36C245.551 548.648 236.159 544.264 230.102 535.497" stroke="black" stroke-width="5" stroke-linecap="round"/>
<path d="M404.415 368.197C399.482 390.484 387.609 438.927 379.576 454.402" stroke="black" stroke-width="5" stroke-linecap="round"/>
<path d="M404.415 432.486C412.783 411.681 428.817 366.189 426.005 350.664" stroke="black" stroke-width="5" stroke-linecap="round"/>
<path d="M360.582 257.884C371.053 259.102 394.041 262.998 402.223 268.843" stroke="black" stroke-width="5" stroke-linecap="round"/>
</svg>
