<?xml version="1.0" encoding="UTF-8" standalone="no"?>
<!DOCTYPE svg PUBLIC "-//W3C//DTD SVG 1.1//EN" "http://www.w3.org/Graphics/SVG/1.1/DTD/svg11.dtd">
<svg width="100%" height="100%" viewBox="0 0 653 653" version="1.1" xmlns="http://www.w3.org/2000/svg" xmlns:xlink="http://www.w3.org/1999/xlink" xml:space="preserve" xmlns:serif="http://www.serif.com/" style="fill-rule:evenodd;clip-rule:evenodd;stroke-linecap:round;stroke-miterlimit:1.5;">
    <g transform="matrix(1,0,0,1,-64.8875,-73.8485)">
        <g transform="matrix(1.60535,0,0,1.60535,-257.257,-217.249)">
            <g transform="matrix(1.02667,0,0,0.888567,-94.6574,-51.8338)">
                <path d="M656,491C656,382.273 579.602,294 485.5,294C391.398,294 315,382.273 315,491L315,688L485.5,688C579.602,688 656,599.727 656,491Z" style="fill:none;stroke:black;stroke-width:32.44px;"/>
            </g>
            <path d="M228.744,559.5C217.638,542.475 325.921,560.845 337,497.36C444.981,552.41 576.313,486.928 568.609,356.531C568.641,402.548 562.17,453.397 537.225,489.963C487.741,562.501 395.84,559.812 228.744,559.5Z" style="stroke:black;stroke-width:12.46px;stroke-linejoin:round;"/>
            <g transform="matrix(0.921613,0,0,0.921613,5.28837,36.1116)">
                <path d="M341,326C398.45,448.413 519.357,365.448 507,320C492.531,308.469 420.798,300.067 341,326Z" style="stroke:black;stroke-width:6.76px;stroke-linejoin:round;"/>
            </g>
            <g transform="matrix(1.72314,0,0,1.13582,-412.224,-44.6068)">
                <path d="M558.896,304.063C557.103,295.792 542.673,307.156 533.896,324.795C534.775,334.732 550.601,358.56 566.03,351.037C568.789,331.31 562.365,310.482 558.896,304.063Z" style="stroke:black;stroke-width:8.54px;stroke-linejoin:round;"/>
            </g>
        </g>
    </g>
</svg>
